<?xml version="1.0" encoding="iso-8859-1"?>
<!-- Generator: Adobe Illustrator 19.0.0, SVG Export Plug-In . SVG Version: 6.00 Build 0)  -->
<svg version="1.1" id="Capa_1" xmlns="http://www.w3.org/2000/svg" xmlns:xlink="http://www.w3.org/1999/xlink" x="0px" y="0px"
	 viewBox="0 0 445.649 445.649" style="enable-background:new 0 0 445.649 445.649;" xml:space="preserve">
<g>
	<g>
		<g>
			<path d="M66.09,193.829v32.914l127.478,109.192c1.739,1.447,2.86,3.502,3.135,5.747v103.967l52.245-28.735v-75.233
				c0.275-2.245,1.396-4.3,3.135-5.747l127.478-109.192v-32.914H66.09z"/>
			<circle cx="104.229" cy="118.596" r="26.645"/>
			<path d="M277.678,115.457c-0.002,18.755,15.2,33.961,33.955,33.963c18.755,0.002,33.961-15.2,33.963-33.955
				c0.002-18.755-15.2-33.961-33.955-33.963c-18.553-0.002-33.674,14.886-33.959,33.437
				C277.679,115.112,277.678,115.284,277.678,115.457z"/>
			<circle cx="206.629" cy="73.665" r="16.196"/>
			<path d="M269.322,32.392c8.945,0,16.196-7.251,16.196-16.196C285.518,7.251,278.267,0,269.322,0c0,0,0,0,0,0
				c-8.945,0-16.196,7.251-16.196,16.196S260.378,32.392,269.322,32.392z"/>
		</g>
	</g>
</g>
<g>
</g>
<g>
</g>
<g>
</g>
<g>
</g>
<g>
</g>
<g>
</g>
<g>
</g>
<g>
</g>
<g>
</g>
<g>
</g>
<g>
</g>
<g>
</g>
<g>
</g>
<g>
</g>
<g>
</g>
</svg>
